<svg width="22" height="22" viewBox="0 0 22 22" fill="none" xmlns="http://www.w3.org/2000/svg">
<g clip-path="url(#clip0_102_2666)">
<path d="M16.5916 7.65415L13.2916 10.175C13.0624 10.3583 12.7416 10.3583 12.5124 10.175L10.0374 8.34165C9.30409 7.79165 8.24992 7.97498 7.74575 8.75415L4.62909 13.6583C4.30825 14.1166 4.90409 14.6666 5.36242 14.3458L8.70825 11.825C8.93742 11.6416 9.25825 11.6416 9.48742 11.825L11.9624 13.6583C12.6958 14.2083 13.7499 14.025 14.2541 13.2458L17.3708 8.34165C17.6458 7.83748 17.0499 7.33331 16.5916 7.65415ZM10.9999 0.458313C5.04159 0.458313 0.458252 4.81248 0.458252 10.6791C0.458252 13.75 1.69575 16.4083 3.75825 18.2416C3.94159 18.3791 4.03325 18.6083 4.03325 18.8375L4.12492 20.7166C4.12492 21.175 4.53742 21.5416 4.94992 21.5416C5.04159 21.5416 5.17909 21.5416 5.27075 21.45L7.37909 20.5333C7.47075 20.4875 7.60825 20.4416 7.69992 20.4416C7.79158 20.4416 7.83742 20.4416 7.92909 20.4875C8.89159 20.7625 9.89992 20.9 10.9999 20.9C16.9583 20.9 21.5416 16.5458 21.5416 10.6791C21.5416 4.81248 16.9583 0.458313 10.9999 0.458313ZM10.9999 19.525C10.0833 19.525 9.16659 19.3875 8.29575 19.1583C8.11242 19.1125 7.92909 19.0666 7.69992 19.0666C7.37909 19.0666 7.10409 19.1125 6.78325 19.25L5.40825 19.8458V18.7916C5.40825 18.1958 5.13325 17.6458 4.67492 17.2333C2.84159 15.5833 1.83325 13.2458 1.83325 10.6791C1.83325 5.63748 5.77492 1.83331 10.9999 1.83331C16.2249 1.83331 20.1666 5.63748 20.1666 10.6791C20.1666 15.7208 16.2249 19.525 10.9999 19.525Z" fill="#262626"/>
</g>
<defs>
<clipPath id="clip0_102_2666">
<rect width="22" height="22" fill="white"/>
</clipPath>
</defs>
</svg>
