<svg width="277" height="28" viewBox="0 0 277 28" fill="none" xmlns="http://www.w3.org/2000/svg">
<path d="M269.3 17.325V6.41669C269.3 4.72503 267.958 3.38336 266.267 3.38336H255.417C253.725 3.38336 252.383 4.72503 252.383 6.41669V17.325C252.383 19.0167 253.725 20.3584 255.417 20.3584H266.325C267.958 20.3 269.3 18.9584 269.3 17.325ZM271.867 8.75003V18.1417C271.867 20.7667 269.708 22.925 267.083 22.925H257.692C257.342 22.925 257.167 23.3334 257.4 23.5667C257.983 24.2084 258.8 24.6167 259.792 24.6167H267.608C270.933 24.6167 273.617 21.9334 273.617 18.6084V10.7917C273.617 9.85836 273.208 8.98336 272.567 8.40003C272.275 8.16669 271.867 8.40003 271.867 8.75003Z" fill="white"/>
</svg>
