<svg width="277" height="28" viewBox="0 0 277 28" fill="none" xmlns="http://www.w3.org/2000/svg">
<g clip-path="url(#clip0_102_2556)">
<path d="M267.375 16.45L260.842 12.6583C260.55 12.4833 260.258 12.4833 259.967 12.6583C259.675 12.775 259.5 13.0667 259.5 13.4167V21C259.5 21.2917 259.675 21.5833 259.967 21.7583C260.083 21.8167 260.258 21.875 260.375 21.875C260.55 21.875 260.667 21.8167 260.842 21.7583L267.375 17.9667C267.667 17.7917 267.783 17.5 267.783 17.2083C267.783 16.9167 267.608 16.625 267.375 16.45ZM274.608 2.33333C273.15 0.933333 271.4 0 267.492 0H258.45C254.6 0 252.85 0.933333 251.333 2.39167C249.933 3.85 249 5.6 249 9.45V18.4917C249 22.3417 249.933 24.15 251.392 25.6083C252.85 27.0083 254.6 27.9417 258.508 27.9417H267.55C271.4 27.9417 273.208 27.0083 274.667 25.55C276.067 24.0917 277 22.3417 277 18.4333V9.45C277 5.6 276.067 3.85 274.608 2.33333ZM267.55 1.75C271.225 1.75 272.45 2.68333 273.383 3.61667C274.083 4.31667 274.725 5.19167 275.075 7H269.65L266.675 1.75H267.55ZM258.45 1.75H264.575L267.55 7H260.55L257.575 1.75H258.45ZM252.617 3.61667C253.258 2.975 254.075 2.33333 255.708 1.98333L258.567 7H250.925C251.275 5.19167 251.917 4.31667 252.617 3.61667ZM275.25 18.55C275.25 22.225 274.317 23.45 273.383 24.3833C272.45 25.3167 271.167 26.25 267.55 26.25H258.45C254.775 26.25 253.55 25.3167 252.617 24.3833C251.683 23.45 250.75 22.1667 250.75 18.55V8.75H275.25V18.55Z" fill="white"/>
</g>
<defs>
<clipPath id="clip0_102_2556">
<rect width="28" height="28" fill="white" transform="translate(249)"/>
</clipPath>
</defs>
</svg>
